# xmcd
#
# Track frame offsets:
# 150
# 19185
# 37175
# 53183
# 72087
# 93248
# 106743
# 120257
#
# Disc length: 1822 seconds
#
#
# Revision: 0
# Processed by: cddbd v1.5.2PL0 Copyright (c) Steve Scherf et al.
# Submitted via: FreeRIP 2.60 
#
DISCID=5e071c08
DTITLE=Sawyer Brown - Rejoice
DYEAR=2008
DGENRE=Gospel
TTITLE0=Go Tell It On the Mountain
TTITLE1=Do You Hear What I Hear
TTITLE2=God Rest Ye Merry Gentlemen
TTITLE3=Rejoice
TTITLE4=The First Noel
TTITLE5=O Come, O Come Emmanuel
TTITLE6=Gloria
TTITLE7=O Come All Ye Faithful
EXTD=
EXTT0=
EXTT1=
EXTT2=
EXTT3=
EXTT4=
EXTT5=
EXTT6=
EXTT7=
PLAYORDER=
